<svg preserveAspectRatio="none" overflow="visible" style="display: block;" width="24" height="24" viewBox="0 0 24 24" fill="none" xmlns="http://www.w3.org/2000/svg">
<g id="Frame">
<path id="Vector" d="M4 21V18C4 15.8783 4.84285 13.8434 6.34315 12.3431C7.84344 10.8429 9.87827 10 12 10C14.1217 10 16.1566 10.8429 17.6569 12.3431C19.1571 13.8434 20 15.8783 20 18V21M16 7C16 8.06087 15.5786 9.07828 14.8284 9.82843C14.0783 10.5786 13.0609 11 12 11C10.9391 11 9.92172 10.5786 9.17157 9.82843C8.42143 9.07828 8 8.06087 8 7C8 5.93913 8.42143 4.92172 9.17157 4.17157C9.92172 3.42143 10.9391 3 12 3C13.0609 3 14.0783 3.42143 14.8284 4.17157C15.5786 4.92172 16 5.93913 16 7Z" stroke="#0C1431" stroke-width="1.7" stroke-linecap="round" stroke-linejoin="round"/>
</g>
</svg>
